<?xml version="1.0" encoding="UTF-8"?>
<svg width="59px" height="40px" viewBox="0 0 59 40" version="1.1" xmlns="http://www.w3.org/2000/svg" xmlns:xlink="http://www.w3.org/1999/xlink">
    <!-- Generator: Sketch 61.2 (89653) - https://sketch.com -->
    <title>Artboard</title>
    <desc>Created with Sketch.</desc>
    <g id="Artboard" stroke="none" stroke-width="1" fill="none" fill-rule="evenodd">
        <g id="noun_Cruise-Ship_485091" transform="translate(5.000000, 9.000000)" fill="#828080" fill-rule="nonzero">
            <g id="Group">
                <g>
                    <path d="M35,7 L33.2,7 L31.599,5 L19.899,5 L19.099,4 L18,4 L18,3 L14,1 L11,0 L10.2,4 L9,4 L6.6,7 L5,7 L1.8,11 L0,11 L2,18 L38,18 L46,11 L38.2,11 L35,7 Z M11.759,1.307 L13.616,1.926 L17,3.618 L17,4 L11.22,4 L11.759,1.307 Z M5.48,8 L10,8 L10,7 L7.88,7 L9.481,5 L18.62,5 L19.42,6 L31.12,6 L31.921,7 L21,7 L21,8 L34.52,8 L35.32,9 L25,9 L25,10 L36.119,10 L36.919,11 L3.081,11 L5.48,8 Z M43.339,12 L37.624,17 L2.754,17 L2.183,15 L6,15 L6,14 L1.897,14 L1.326,12 L39,12 L43.339,12 Z" id="Shape"></path>
                    <rect id="Rectangle" x="29" y="14" width="8" height="1"></rect>
                    <rect id="Rectangle" x="27" y="14" width="1" height="1"></rect>
                    <rect id="Rectangle" x="7" y="14" width="1" height="1"></rect>
                    <rect id="Rectangle" x="18" y="7" width="1" height="1"></rect>
                    <rect id="Rectangle" x="15" y="7" width="1" height="1"></rect>
                    <rect id="Rectangle" x="12" y="7" width="1" height="1"></rect>
                    <rect id="Rectangle" x="22" y="9" width="1" height="1"></rect>
                    <rect id="Rectangle" x="19" y="9" width="1" height="1"></rect>
                    <rect id="Rectangle" x="16" y="9" width="1" height="1"></rect>
                    <rect id="Rectangle" x="13" y="9" width="1" height="1"></rect>
                    <rect id="Rectangle" x="10" y="9" width="1" height="1"></rect>
                    <rect id="Rectangle" x="7" y="9" width="1" height="1"></rect>
                </g>
            </g>
        </g>
    </g>
</svg>